<mxfile host="Electron" modified="2023-07-06T05:45:34.720Z" agent="Mozilla/5.0 (Windows NT 10.0; Win64; x64) AppleWebKit/537.36 (KHTML, like Gecko) draw.io/21.5.0 Chrome/112.0.5615.204 Electron/24.5.1 Safari/537.36" etag="yLW_-xcYOpplWCenW4Hg" version="21.5.0" type="device">
  <diagram name="第 1 页" id="X7bQBExx74ORD6AE89X6">
    <mxGraphModel dx="1098" dy="820" grid="1" gridSize="10" guides="1" tooltips="1" connect="1" arrows="1" fold="1" page="1" pageScale="1" pageWidth="827" pageHeight="1169" math="0" shadow="0">
      <root>
        <mxCell id="0" />
        <mxCell id="1" parent="0" />
        <mxCell id="wb_HqCtIBGQG23Buik3K-5" value="" style="edgeStyle=orthogonalEdgeStyle;rounded=0;orthogonalLoop=1;jettySize=auto;html=1;strokeColor=#FF6392;fontColor=#5AA9E6;fillColor=#FFE45E;" edge="1" parent="1" source="wb_HqCtIBGQG23Buik3K-2" target="wb_HqCtIBGQG23Buik3K-4">
          <mxGeometry relative="1" as="geometry">
            <Array as="points">
              <mxPoint x="320" y="120" />
              <mxPoint x="120" y="120" />
            </Array>
          </mxGeometry>
        </mxCell>
        <mxCell id="wb_HqCtIBGQG23Buik3K-7" value="" style="edgeStyle=orthogonalEdgeStyle;rounded=0;orthogonalLoop=1;jettySize=auto;html=1;strokeColor=#FF6392;fontColor=#5AA9E6;fillColor=#FFE45E;" edge="1" parent="1" source="wb_HqCtIBGQG23Buik3K-2" target="wb_HqCtIBGQG23Buik3K-6">
          <mxGeometry relative="1" as="geometry">
            <Array as="points">
              <mxPoint x="320" y="120" />
              <mxPoint x="520" y="120" />
            </Array>
          </mxGeometry>
        </mxCell>
        <mxCell id="wb_HqCtIBGQG23Buik3K-2" value="should do/done" style="rounded=0;whiteSpace=wrap;html=1;strokeColor=#FF6392;fontColor=#5AA9E6;fillColor=#FFE45E;" vertex="1" parent="1">
          <mxGeometry x="240" width="160" height="60" as="geometry" />
        </mxCell>
        <mxCell id="wb_HqCtIBGQG23Buik3K-4" value="it is about/high time + that的定于从句" style="rounded=0;whiteSpace=wrap;html=1;strokeColor=#FF6392;fontColor=#5AA9E6;fillColor=#FFE45E;" vertex="1" parent="1">
          <mxGeometry x="40" y="180" width="160" height="60" as="geometry" />
        </mxCell>
        <mxCell id="wb_HqCtIBGQG23Buik3K-6" value="expect,believe,think,suspect等动词的否定或疑问形式后的宾语从句，表示惊奇，怀疑，不满" style="rounded=0;whiteSpace=wrap;html=1;strokeColor=#FF6392;fontColor=#5AA9E6;fillColor=#FFE45E;" vertex="1" parent="1">
          <mxGeometry x="440" y="180" width="160" height="60" as="geometry" />
        </mxCell>
      </root>
    </mxGraphModel>
  </diagram>
</mxfile>
